<?xml version="1.0" encoding="utf-8"?>
<!-- Generator: Adobe Illustrator 21.1.0, SVG Export Plug-In . SVG Version: 6.00 Build 0)  -->
<svg version="1.1" id="Layer_1" xmlns="http://www.w3.org/2000/svg" xmlns:xlink="http://www.w3.org/1999/xlink" x="0px" y="0px"
	 viewBox="0 0 375.4 701.8" style="enable-background:new 0 0 375.4 701.8;" xml:space="preserve">
<style type="text/css">
	.st0{fill:#4F80BA;}
</style>
<path class="st0" d="M373.4,189.9c0-0.1,0-0.2,0-0.2V189.9l1.5-1.3c-0.1-1.9-0.4-4-1-6.1c-0.5-1.8-1.3-3.5-2.2-5
	c-0.7-1.2-1.6-2.3-2.5-3l-0.8-0.7v-16.2l-4.4-3.7l-194.4,163v71.8l4.4-3.6l194.4-162.9v-2.8c1.4,0.9,2.6,0.8,3.5-0.1l1.4-1.1
	c1-0.9,1.6-2.7,1.6-5.2v-24.3L373.4,189.9L373.4,189.9z M371,212.3c0,0.8-0.1,1.5-0.3,2.1c-0.5,0-0.9-0.2-1.5-0.6l-0.8-0.7v-32.7
	c1.5,1.8,2.6,5,2.6,7.6L371,212.3L371,212.3z M368.4,176.3c0.1,0.1,0.2,0.3,0.3,0.4C368.6,176.6,368.5,176.5,368.4,176.3
	L368.4,176.3z M373.3,188.5c0-0.1,0-0.2,0-0.3C373.3,188.3,373.3,188.4,373.3,188.5z M370.4,179c-0.1-0.2-0.2-0.3-0.3-0.5
	c0,0.1,0.1,0.1,0.1,0.2C370.3,178.8,370.3,178.9,370.4,179z M368.9,215.6C368.9,215.6,369,215.6,368.9,215.6
	C369,215.6,368.9,215.6,368.9,215.6z M369.1,215.6c0.1,0,0.1,0,0.2,0C369.2,215.6,369.2,215.6,369.1,215.6z M369.6,215.6
	c-0.1,0-0.1,0-0.2,0C369.4,215.6,369.5,215.6,369.6,215.6z M372.3,218.9c0.7-1,1.1-2.6,1.1-4.7C373.4,216.4,373,218,372.3,218.9z"/>
</svg>
