<?xml version="1.0" encoding="utf-8"?>
<!-- Generator: Adobe Illustrator 21.1.0, SVG Export Plug-In . SVG Version: 6.00 Build 0)  -->
<svg version="1.1" id="Layer_1" xmlns="http://www.w3.org/2000/svg" xmlns:xlink="http://www.w3.org/1999/xlink" x="0px" y="0px"
	 viewBox="0 0 375.4 701.8" style="enable-background:new 0 0 375.4 701.8;" xml:space="preserve">
<style type="text/css">
	.st0{fill:url(#SVGID_1_);}
	.st1{fill:url(#SVGID_2_);}
</style>
<linearGradient id="SVGID_1_" gradientUnits="userSpaceOnUse" x1="171.7255" y1="363.5141" x2="375.1009" y2="363.5141" gradientTransform="matrix(1 0 0 -1 0 704)">
	<stop  offset="0" style="stop-color:#B2B9BB"/>
	<stop  offset="1" style="stop-color:#A1AAAD"/>
</linearGradient>
<path class="st0" d="M373.5,252.8c-0.6-1.9-1.4-3.8-2.3-5.3c-0.7-1.1-1.5-2.1-2.3-2.9v-18.1l-4.4-3.7L169.6,386.3v71.9l4.4-3.5
	l10.2-8.6c1.3,0.7,2.5,0.5,3.4-0.3l1.4-1.1c0.9-0.7,1.5-2.1,1.7-4l177-148.3c1.4,0.8,2.6,0.6,3.5-0.2l1.4-1.1
	c1.1-0.9,1.8-2.9,1.8-5.6l0.1-26C374.5,257.3,374.1,255,373.5,252.8z M369.6,248.8c0.9,1.6,1.7,3.4,2.3,5.3c0.6,1.8,0.9,3.7,1,5.4
	c-0.3-4-1.8-8.5-3.9-11.6v-0.1C369.2,248.1,369.4,248.4,369.6,248.8z M370.3,284.6c0,1-0.2,1.8-0.5,2.4c-0.3,0-0.5-0.1-0.8-0.3
	l-0.1-34.1c0.9,1.8,1.5,4,1.5,6L370.3,284.6z M372.8,287.9c0-0.1,0-0.1,0-0.1S372.8,287.8,372.8,287.9z"/>
<linearGradient id="SVGID_2_" gradientUnits="userSpaceOnUse" x1="168.1105" y1="455.3273" x2="178.6811" y2="455.3273">
	<stop  offset="0" style="stop-color:#B2B9BB"/>
	<stop  offset="1" style="stop-color:#A1AAAD"/>
</linearGradient>
<line class="st1" x1="178.6" y1="450.8" x2="168" y2="459.9"/>
</svg>
