<?xml version="1.0" encoding="utf-8"?>
<!-- Generator: Adobe Illustrator 21.1.0, SVG Export Plug-In . SVG Version: 6.00 Build 0)  -->
<svg version="1.1" id="Layer_1" xmlns="http://www.w3.org/2000/svg" xmlns:xlink="http://www.w3.org/1999/xlink" x="0px" y="0px"
	 viewBox="0 0 375.4 701.8" style="enable-background:new 0 0 375.4 701.8;" xml:space="preserve">
<path d="M375.4,327.4c0-2-0.4-4.1-1-6.2c-0.6-1.8-1.3-3.5-2.2-5c-0.7-1.2-1.6-2.3-2.5-3l-0.9-0.7v-16.3l-4.3-3.6L169.6,455.9v71.7
	l4.4-3.3l11-9.2c0.2-0.1,0.5-0.3,0.7-0.6l0,0c-0.1,0.2-0.3,0.3-0.4,0.4l1.5-1.2c0.2-0.1,0.3-0.3,0.4-0.5L368.9,361v-2.7
	c1.5,0.9,2.8,0.8,3.7-0.3l1.1-0.9c1-0.9,1.6-2.7,1.7-5.3L375.4,327.4L375.4,327.4z M371.5,351.2c0,0.8-0.1,1.5-0.3,2
	c-0.5,0-1-0.2-1.6-0.6l-0.7-0.6l-0.1-32.9c1.5,1.8,2.7,5,2.7,7.7V351.2z M368.8,315c0.2,0.2,0.3,0.4,0.5,0.5
	C369.2,315.3,369,315.2,368.8,315L368.8,315z M372.9,322.4c0.2,0.7,0.4,1.3,0.5,2c-0.2-0.9-0.4-1.8-0.7-2.7
	C372.7,322,372.8,322.2,372.9,322.4z M372.5,321.3c0-0.1-0.1-0.2-0.1-0.3C372.4,321.1,372.5,321.2,372.5,321.3z M371.4,318.8
	c-0.3-0.7-0.7-1.3-1.1-1.8c0.1,0.2,0.2,0.3,0.3,0.5C371,317.8,371.2,318.3,371.4,318.8z M371.9,319.8L371.9,319.8L371.9,319.8z
	 M369.5,315.7l0.1,0.1C369.5,315.8,369.5,315.7,369.5,315.7z M368.9,354.4L368.9,354.4c0.6,0.2,1.2,0.1,1.6-0.3l0.4-0.4
	C370.5,354.5,369.7,354.8,368.9,354.4z M373.9,328.7c0-0.1,0-0.2,0-0.3C373.9,328.5,373.9,328.5,373.9,328.7L373.9,328.7z
	 M373.5,325c0,0.2,0.1,0.5,0.1,0.7C373.6,325.4,373.6,325.2,373.5,325z M373.8,326.8c0,0.2,0,0.4,0,0.5
	C373.8,327.2,373.8,327,373.8,326.8z"/>
</svg>
