<?xml version="1.0" encoding="utf-8"?>
<!-- Generator: Adobe Illustrator 21.1.0, SVG Export Plug-In . SVG Version: 6.00 Build 0)  -->
<svg version="1.1" id="Layer_1" xmlns="http://www.w3.org/2000/svg" xmlns:xlink="http://www.w3.org/1999/xlink" x="0px" y="0px"
	 viewBox="0 0 375.4 701.8" style="enable-background:new 0 0 375.4 701.8;" xml:space="preserve">
<path d="M369.2,366.7l-4.4-3.6L169.6,525.5v71.3l4.4-3.3l14.8-12.4c1.3,0.9,2.7,1.5,4.3,1.5c2.9,0,5.5-1.8,7.2-4.8
	c2.1-0.6,4-2.2,5.4-4.5c2.2-0.6,4.1-2.2,5.5-4.5c3.5-0.9,6.3-4.5,7.4-9.3c0.5,0.1,1.1,0.2,1.6,0.2c2.9,0,5.5-1.8,7.2-4.8
	c2.1-0.6,4-2.2,5.4-4.5c2.2-0.6,4.2-2.2,5.6-4.6c4.2-1.1,7.4-6.2,7.7-12.4l62.6-52.1c1,0.5,2.1,0.9,3.3,0.9c2.9,0,5.5-1.8,7.2-4.8
	c2.1-0.6,4-2.2,5.4-4.5c2.2-0.6,4.2-2.2,5.6-4.6c3.5-0.9,6.3-4.5,7.3-9.3c0.5,0.1,1.1,0.2,1.6,0.2c2.9,0,5.4-1.8,7.2-4.7
	c2.2-0.6,4.1-2.2,5.5-4.5c2.1-0.6,4-2.2,5.4-4.5c3.9-1,6.9-5.4,7.7-10.9l4.4-3.6L369.2,366.7L369.2,366.7z"/>
</svg>
