<?xml version="1.0" encoding="utf-8"?>
<!-- Generator: Adobe Illustrator 21.1.0, SVG Export Plug-In . SVG Version: 6.00 Build 0)  -->
<svg version="1.1" id="Layer_1" xmlns="http://www.w3.org/2000/svg" xmlns:xlink="http://www.w3.org/1999/xlink" x="0px" y="0px"
	 viewBox="0 0 375.4 701.8" style="enable-background:new 0 0 375.4 701.8;" xml:space="preserve">
<style type="text/css">
	.st0{fill:#35383A;}
</style>
<polygon class="st0" points="369.1,435.5 364.7,431.8 359.1,436.4 358.6,436 352.2,441.2 352.2,442.2 350.1,444 349.5,443.5 
	343.2,448.7 343.2,449.8 341.1,451.5 340.5,451 334.2,456.2 334.2,457.3 332.1,459 331.5,458.5 325.1,463.7 325.1,464.9 
	323.1,466.6 322.4,466 316.1,471.2 316.1,472.4 314.1,474.1 313.4,473.5 307.1,478.7 307.1,479.9 305,481.6 304.3,481 298,486.2 
	298,487.5 296.1,489.1 295.3,488.5 289,493.7 289,495 287.1,496.6 286.3,496 280,501.2 280,502.5 278,504.2 277.3,503.6 271,508.9 
	271,510 269,511.7 268.3,511.1 262,516.4 262,517.6 260,519.2 259.3,518.6 253,523.9 253,525.1 251,526.8 250.2,526.1 243.9,531.4 
	243.9,532.7 242,534.3 241.2,533.6 234.9,538.9 234.9,540.2 233,541.8 232.2,541.1 225.8,546.4 225.8,547.8 224,549.3 223.1,548.6 
	216.8,553.9 216.8,555.3 215,556.8 214.1,556.1 207.8,561.4 207.8,562.8 206,564.3 205.1,563.6 198.7,568.9 198.7,570.4 196.8,572 
	196,571.3 189.6,576.6 189.6,578 187.8,579.5 186.9,578.8 180.6,584.1 180.6,585.5 178.8,587 177.9,586.3 171.6,591.6 171.6,593 
	169.6,594.7 169.6,665.3 174,662.9 369.2,500 "/>
<path class="st0" d="M180.9,657.1"/>
</svg>
